<svg width="158" height="43" viewBox="0 0 158 43" fill="none" xmlns="http://www.w3.org/2000/svg">
<g clip-path="url(#clip0_2_71)" filter="url(#filter0_d_2_71)">
<path d="M21.15 0C11.6775 0 4 7.67746 4 17.15C4 26.0201 10.7355 33.3175 19.3711 34.207C18.8496 29.9134 19.0436 26.4001 19.7067 23.5135C19.3347 21.7225 18.4898 19.0703 16.5734 17.1864C16.5734 17.1864 17.8348 19.0784 18.5181 21.6214C18.5181 21.6255 18.5221 21.6295 18.5221 21.6335C18.5949 21.9044 18.6596 22.1793 18.7162 22.4623C18.7283 22.527 18.7404 22.5917 18.7526 22.6604C18.8051 22.9515 18.8536 23.2426 18.886 23.5418C9.19513 22.3532 7.12921 13.6569 7.35561 10.3781C17.665 10.9482 19.7754 17.8292 20.0827 22.0985C23.4585 11.0412 34.1843 10.4024 35.0697 10.3781C35.4538 18.8763 29.1509 25.5026 21.6149 26.0807C21.6635 25.8503 21.7201 25.6198 21.7767 25.3934C21.7928 25.3247 21.813 25.26 21.8333 25.1913C21.8777 25.0296 21.9222 24.8679 21.9748 24.7061C21.995 24.6374 22.0192 24.5646 22.0394 24.4959C22.096 24.318 22.1567 24.1442 22.2173 23.9663C22.2335 23.9259 22.2456 23.8854 22.2618 23.845C22.3386 23.6348 22.4195 23.4326 22.5003 23.2305C22.5084 23.2143 22.5125 23.1941 22.5205 23.1779C22.5205 23.1779 22.5205 23.1779 22.5246 23.1779C24.4571 18.5043 28.0229 15.4439 28.0229 15.4439C21.0247 19.4868 19.8441 29.9983 19.6582 34.2231C20.1514 34.2676 20.6446 34.2999 21.15 34.2999C30.6225 34.2999 38.3 26.6225 38.3 17.15C38.3 7.67746 30.6225 0 21.15 0Z" fill="#46A358"/>
<path d="M50.7037 10.7454C52.9718 10.7454 54.8235 11.7197 56.0242 13.4986L53.7764 15.4109C52.9718 14.287 51.9975 13.7048 50.6471 13.7048C48.5691 13.7048 47.2753 15.0713 47.2753 17.1534C47.2753 19.2719 48.6418 20.695 50.8372 20.695C52.0177 20.695 52.9556 20.2826 53.554 19.5912V19.0091H50.6673V16.2356H56.7762V20.133C56.194 21.1639 55.3693 21.9887 54.3019 22.6234C53.2346 23.242 52.0339 23.5614 50.7037 23.5614C46.9923 23.618 43.9237 20.7313 43.9763 17.1534C43.9197 13.5956 46.9923 10.6888 50.7037 10.7454Z" fill="#46A358"/>
<path d="M65.9576 23.3316L63.168 19.4908H61.8379V23.3316H58.6157V10.9684H63.4672C66.2204 10.9684 68.2459 12.6543 68.2459 15.2215C68.2459 16.7376 67.5141 17.995 66.2972 18.7429L69.5558 23.3316H65.9576ZM61.8338 16.681H63.4833C64.3809 16.681 64.963 16.0988 64.963 15.2215C64.963 14.3442 64.3809 13.7782 63.4833 13.7782H61.8338V16.681Z" fill="#46A358"/>
<path d="M70.8333 10.9684H79.4124V13.8712H74.0555V15.5773H77.876V18.2739H74.0555V20.4288H79.6388V23.3316H70.8333V10.9684Z" fill="#46A358"/>
<path d="M81.6441 10.9684H90.2231V13.8712H84.8663V15.5773H88.6868V18.2739H84.8663V20.4288H90.4495V23.3316H81.6441V10.9684Z" fill="#46A358"/>
<path d="M103.419 10.9683V23.5579H102.388L95.681 17.057V23.3315H92.4588V10.7419H93.4897L100.197 17.1499V10.9683H103.419Z" fill="#46A358"/>
<path d="M107.264 19.135C107.996 20.1094 108.764 20.7279 110.017 20.7279C110.862 20.7279 111.291 20.4288 111.291 19.8264C111.291 19.2846 111.008 19.1148 110.033 18.6822L108.76 18.1203C106.718 17.2187 105.631 16.0584 105.631 14.3927C105.631 12.2014 107.43 10.7379 109.957 10.7379C111.998 10.7379 113.442 11.7123 114.19 13.2283L112.035 14.8778C111.436 13.9803 110.874 13.5679 109.993 13.5679C109.318 13.5679 108.889 13.8307 108.889 14.3563C108.889 14.8051 109.152 15.0517 109.957 15.367L111.38 15.9654C113.535 16.867 114.545 17.9505 114.545 19.6929C114.545 22.0904 112.576 23.5539 110.009 23.5539C107.782 23.5539 105.982 22.4866 105.081 20.7805L107.264 19.135Z" fill="#46A358"/>
<path d="M116.393 10.9684H119.615V15.4843H124.131V10.9684H127.353V23.3316H124.131V18.3871H119.615V23.3316H116.393V10.9684Z" fill="#46A358"/>
<path d="M135.843 10.7419C139.441 10.6651 142.607 13.6084 142.53 17.1499C142.603 20.7279 139.441 23.6145 135.843 23.5579C132.229 23.6145 129.116 20.7279 129.193 17.1499C129.116 13.6084 132.229 10.6692 135.843 10.7419ZM135.859 13.7014C133.874 13.7014 132.488 15.1083 132.488 17.1499C132.488 18.1809 132.807 19.0218 133.426 19.6606C134.044 20.2791 134.869 20.5985 135.859 20.5985C137.772 20.5985 139.231 19.2118 139.231 17.1499C139.235 15.1083 137.772 13.7014 135.859 13.7014Z" fill="#46A358"/>
<path d="M144.374 10.9684H149.226C151.979 10.9684 154.004 12.6543 154.004 15.2215C154.004 17.7524 151.926 19.4908 149.226 19.4908H147.596V23.3316H144.374V10.9684ZM149.242 16.681C150.139 16.681 150.721 16.0988 150.721 15.2215C150.721 14.3442 150.139 13.7782 149.242 13.7782H147.592V16.681H149.242Z" fill="#46A358"/>
</g>
<defs>
<filter id="filter0_d_2_71" x="0" y="0" width="158" height="42.2999" filterUnits="userSpaceOnUse" color-interpolation-filters="sRGB">
<feFlood flood-opacity="0" result="BackgroundImageFix"/>
<feColorMatrix in="SourceAlpha" type="matrix" values="0 0 0 0 0 0 0 0 0 0 0 0 0 0 0 0 0 0 127 0" result="hardAlpha"/>
<feOffset dy="4"/>
<feGaussianBlur stdDeviation="2"/>
<feComposite in2="hardAlpha" operator="out"/>
<feColorMatrix type="matrix" values="0 0 0 0 0 0 0 0 0 0 0 0 0 0 0 0 0 0 0.25 0"/>
<feBlend mode="normal" in2="BackgroundImageFix" result="effect1_dropShadow_2_71"/>
<feBlend mode="normal" in="SourceGraphic" in2="effect1_dropShadow_2_71" result="shape"/>
</filter>
<clipPath id="clip0_2_71">
<rect width="150" height="34.2999" fill="white" transform="translate(4)"/>
</clipPath>
</defs>
</svg>
